<?xml version="1.0" encoding="UTF-8"?>
<svg id="Layer_1" data-name="Layer 1" xmlns="http://www.w3.org/2000/svg" xmlns:xlink="http://www.w3.org/1999/xlink" version="1.1" viewBox="0 0 491.8 141.9">
  <defs>
    <style>
      .cls-1 {
        fill: url(#linear-gradient);
      }

      .cls-1, .cls-2, .cls-3 {
        stroke-width: 0px;
      }

      .cls-2 {
        fill: #161c27;
      }

      .cls-3 {
        fill: url(#linear-gradient-2);
      }
    </style>
    <linearGradient id="linear-gradient" x1="-36.9" y1="85.6" x2="193" y2="85.6" gradientUnits="userSpaceOnUse">
      <stop offset="0" stop-color="#3debcb"/>
      <stop offset="1" stop-color="#005a60"/>
    </linearGradient>
    <linearGradient id="linear-gradient-2" x1="-36.9" y1="34.5" x2="193" y2="34.5" xlink:href="#linear-gradient"/>
  </defs>
  <path class="cls-2" d="M385.9,53.2h-49.1v18.3h40.6v29.5h-40.6v40.9h-33.5V23.8h82.6v29.4Z"/>
  <path class="cls-2" d="M425.8,53.2h-32.5v-29.4h98.5v29.4h-32.5v88.7h-33.5V53.2Z"/>
  <path class="cls-1" d="M125.3,29.2l.8,1.6-62.2,111h-1.8L0,30.9l.7-1.6h124.7ZM42.1,54.5l21.1,37.9,20.9-37.9h-42.1Z"/>
  <path class="cls-3" d="M157.3,52.2h20.4v16.9h-46.2v-15.5l20.9-19.4c4-3.7,6.2-7.2,6.2-11s-2.4-6.1-6.2-6.1-7,2.9-8.1,9.1l-15.6-3.8c1.7-14.6,10-22.4,24.2-22.4s24.3,8.6,24.3,22.1-4,15.4-14.4,25l-5.5,5.1Z"/>
  <path class="cls-2" d="M233.9,23.8h-39.4v29.4h37.6c16.3,0,25.9,10.9,25.9,29.7s-9.6,29.7-25.9,29.7h-37.6v29.4h39.4c34.5,0,57.9-23.9,57.9-59s-23.4-59-57.9-59Z"/>
</svg>